<svg xmlns="http://www.w3.org/2000/svg" viewBox="0 0 400 400" fill="none">
  <!-- Certificate body -->
  <rect x="60" y="50" width="280" height="200" rx="12" fill="#101123" stroke="#2a2e5a" stroke-width="2"/>
  <!-- Header line -->
  <rect x="80" y="70" width="240" height="2" rx="1" fill="#8228ec" opacity="0.6"/>
  <!-- Star/badge icon -->
  <circle cx="200" cy="120" r="24" fill="none" stroke="#16f2b3" stroke-width="2"/>
  <path d="M200 100l5 12 13 2-9 9 2 13-11-6-11 6 2-13-9-9 13-2z" fill="#16f2b3"/>
  <!-- Text lines -->
  <rect x="120" y="160" width="160" height="8" rx="4" fill="#2a2e5a"/>
  <rect x="140" y="178" width="120" height="6" rx="3" fill="#1a1443"/>
  <rect x="100" y="196" width="200" height="6" rx="3" fill="#1a1443"/>
  <rect x="130" y="214" width="140" height="6" rx="3" fill="#1a1443"/>
  <!-- Footer line -->
  <rect x="80" y="232" width="240" height="2" rx="1" fill="#8228ec" opacity="0.6"/>
  <!-- Ribbon left -->
  <path d="M160 250l-20 60 20-15 20 15z" fill="#8228ec" opacity="0.8"/>
  <!-- Ribbon right -->
  <path d="M240 250l-20 60 20-15 20 15z" fill="#f626af" opacity="0.8"/>
  <!-- Seal -->
  <circle cx="200" cy="260" r="30" fill="#101123" stroke="#16f2b3" stroke-width="2"/>
  <circle cx="200" cy="260" r="22" fill="none" stroke="#16f2b3" stroke-width="1" opacity="0.5"/>
  <path d="M200 244l4 8 9 1-6 6 1 9-8-4-8 4 1-9-6-6 9-1z" fill="#16f2b3"/>
</svg>
